<svg width="24" height="24" viewBox="0 0 24 24" fill="none" xmlns="http://www.w3.org/2000/svg">
<path d="M19.18 9.03933L19.6435 8.57589C20.4113 7.80804 21.6563 7.80804 22.4241 8.57589C23.192 9.34374 23.192 10.5887 22.4241 11.3565L21.9607 11.82M19.18 9.03933C19.18 9.03933 19.238 10.0241 20.1069 10.8931C20.9759 11.762 21.9607 11.82 21.9607 11.82M21.9607 11.82L17.7001 16.0806C17.4115 16.3692 17.2672 16.5135 17.1081 16.6376C16.9204 16.7839 16.7173 16.9094 16.5025 17.0118C16.3203 17.0986 16.1268 17.1632 15.7396 17.2922L14.5 17.7054L14.099 17.8391L13.6979 17.9728C13.5074 18.0363 13.2973 17.9867 13.1553 17.8447C13.0133 17.7027 12.9637 17.4926 13.0272 17.3021L13.1609 16.901L13.2946 16.5L13.7078 15.2604C13.8368 14.8732 13.9014 14.6797 13.9882 14.4975C14.0906 14.2827 14.2161 14.0796 14.3624 13.8919C14.4865 13.7328 14.6308 13.5885 14.9194 13.2999L19.18 9.03933M14.099 17.8391L13.1609 16.901" stroke="currentColor" stroke-width="1.24999"/>
<path d="M8 12H10.5" stroke="currentColor" stroke-width="1.24999" stroke-linecap="round"/>
<path d="M8 8H14.5" stroke="currentColor" stroke-width="1.24999" stroke-linecap="round"/>
<path d="M8 16H9.5" stroke="currentColor" stroke-width="1.24999" stroke-linecap="round"/>
<path d="M19.8284 3.17157C18.6569 2 16.7712 2 13 2H11C7.22876 2 5.34315 2 4.17157 3.17157C3 4.34315 3 6.22876 3 10V14C3 17.7712 3 19.6569 4.17157 20.8284C5.34315 22 7.22876 22 11 22H13C16.7712 22 18.6569 22 19.8284 20.8284C20.7715 19.8853 20.9554 18.4796 20.9913 16" stroke="currentColor" stroke-width="1.24999" stroke-linecap="round"/>
</svg>
