<svg width="24" height="24" viewBox="0 0 24 24" fill="none" xmlns="http://www.w3.org/2000/svg">
<path d="M12.858 20C15.0854 20 16.1992 20 17.1289 19.4986C18.0586 18.9971 18.6488 18.0781 19.8294 16.24L20.5102 15.18C21.5034 13.6336 22 12.8604 22 12C22 11.1396 21.5034 10.3664 20.5102 8.82001L19.8294 7.76001C18.6488 5.92191 18.0586 5.00286 17.1289 4.50143C16.1992 4 15.0854 4 12.858 4L10.221 4C6.34561 4 4.40789 4 3.20395 5.17157C2 6.34315 2 8.22876 2 12C2 15.7712 2 17.6569 3.20395 18.8284C4.40789 20 6.34561 20 10.221 20H12.858Z" stroke="currentColor" stroke-width="1.5"/>
</svg>
