<svg width="24" height="24" viewBox="0 0 24 24" fill="none" xmlns="http://www.w3.org/2000/svg">
<path d="M15.667 3.45833H22.083C22.2447 3.45833 22.375 3.5886 22.375 3.75032V22.0833C22.375 22.245 22.2447 22.3753 22.083 22.3753H3.75C3.58878 22.3753 3.45801 22.2446 3.45801 22.0833V17.7913H1.91699C1.75588 17.7913 1.62518 17.6615 1.625 17.5003C1.625 17.339 1.75577 17.2083 1.91699 17.2083H8.04199V13.2083H6.5C6.33878 13.2083 6.20801 13.0777 6.20801 12.9163C6.20818 12.7552 6.33889 12.6253 6.5 12.6253H12.625V8.62532H11.083C10.9219 8.62515 10.792 8.49454 10.792 8.33333C10.792 8.17212 10.9219 8.04151 11.083 8.04134H17.208V4.04134H15.667C15.5059 4.04134 15.3752 3.91149 15.375 3.75032C15.375 3.589 15.5058 3.45833 15.667 3.45833Z" stroke="currentColor" stroke-width="1.25"/>
</svg>
