<svg width="24" height="24" viewBox="0 0 24 24" fill="none" xmlns="http://www.w3.org/2000/svg">
<path d="M4.58704 9.13037C4.19086 9.13037 3.86963 9.45156 3.86963 9.84778V19.1739C3.86963 19.5701 4.19082 19.8913 4.58704 19.8913C4.98325 19.8913 5.30444 19.5701 5.30444 19.1739V9.84778C5.30444 9.45161 4.98325 9.13037 4.58704 9.13037Z" fill="currentColor"/>
<path d="M20.9131 6.97851L17.6702 6.98392C16.8237 6.98525 15.998 7.14987 15.2157 7.47308L9.6087 9.63032V7.56232L15.2762 5.44491C16.1645 5.16557 16.7826 4.32493 16.7826 3.39143C16.7826 2.20472 15.8172 1.23926 14.6305 1.23926C14.6048 1.23926 14.5792 1.24063 14.5536 1.24338L4.15421 2.36396C4.15012 2.36444 4.14613 2.36491 4.14205 2.36538C2.35081 2.58934 1 4.1195 1 5.92466C1 6.41527 1 21.3201 1 22.0436C1 22.4398 1.32119 22.761 1.71741 22.761H8.8913C9.28747 22.761 9.6087 22.4398 9.6087 22.0436V18.0996L16.1858 13.2045C16.1925 13.1995 16.1991 13.1944 16.2056 13.1892C16.51 12.9457 16.8769 12.7901 17.2609 12.7376V13.8834C17.2609 14.8228 18.0252 15.5871 18.9647 15.5871H19.4131H19.8614C20.8009 15.5871 21.5652 14.8228 21.5652 13.8833V12.6444C22.3919 12.4125 23 11.6527 23 10.753V9.06193C23 7.91961 22.0777 6.97821 20.9131 6.97851ZM8.17393 21.3262H2.43477V7.69579H8.17389V21.3262H8.17393ZM8.97706 6.26664C8.94887 6.26329 8.92039 6.26106 8.8913 6.26106H2.43477V5.9247C2.43477 4.84343 3.24232 3.92665 4.31431 3.7898L14.6625 2.67476C15.0432 2.69156 15.3478 3.00656 15.3478 3.39143C15.3478 3.70562 15.1381 3.98823 14.8379 4.07859C14.823 4.0831 14.8082 4.08804 14.7937 4.0935L8.97706 6.26664ZM20.1304 13.8833C20.1304 14.0317 20.0098 14.1523 19.8614 14.1523H18.9646C18.8163 14.1523 18.6956 14.0317 18.6956 13.8833V12.7175H20.1304V13.8833H20.1304ZM21.5653 10.753C21.5653 11.0451 21.3276 11.2827 21.0354 11.2827H17.5501C16.7431 11.2827 15.9517 11.5588 15.3197 12.0605L9.6087 16.311V11.1676L15.7394 8.80889C15.7452 8.80666 15.751 8.80429 15.7568 8.80189C16.3672 8.54863 17.0117 8.41972 17.6726 8.41861L20.9155 8.41319C20.9159 8.41319 20.9163 8.41319 20.9167 8.41319C21.2724 8.41319 21.5653 8.70074 21.5653 9.06185V10.753Z" fill="currentColor"/>
<path d="M19.947 15.8251C19.8109 15.6736 19.6168 15.5869 19.413 15.5869C19.2093 15.5869 19.0152 15.6736 18.8791 15.8251C18.084 16.7122 16.5435 18.6549 16.5435 19.8913C16.5435 21.4735 17.8308 22.7608 19.413 22.7608C20.9953 22.7608 22.2826 21.4735 22.2826 19.8913C22.2826 18.6589 20.746 16.7166 19.947 15.8251ZM19.413 21.326C18.6219 21.326 17.9783 20.6824 17.9783 19.8913C17.9783 19.434 18.6525 18.366 19.413 17.4151C20.1736 18.3661 20.8478 19.434 20.8478 19.8913C20.8478 20.6824 20.2042 21.326 19.413 21.326Z" fill="currentColor"/>
</svg>
