<svg width="24" height="24" viewBox="0 0 24 24" fill="none" xmlns="http://www.w3.org/2000/svg">
<ellipse cx="9.83333" cy="16.0833" rx="5.83333" ry="2.91667" stroke="currentColor" stroke-width="1.5" stroke-linejoin="round"/>
<circle cx="9.83333" cy="7.33333" r="3.33333" stroke="currentColor" stroke-width="1.5" stroke-linejoin="round"/>
<path d="M14.2139 4.92461C15.909 5.03484 17.25 6.4438 17.25 8.16679C17.2499 9.96161 15.7948 11.4167 14 11.4168C13.6324 11.4168 13.2797 11.3535 12.9502 11.241C13.4135 10.871 13.8096 10.421 14.1172 9.91093C15.0289 9.85051 15.7499 9.09376 15.75 8.16679C15.75 7.48035 15.3536 6.88804 14.7783 6.60136C14.6902 6.00094 14.4955 5.43577 14.2139 4.92461Z" fill="currentColor"/>
<path d="M14.3496 12.4248C15.6708 12.4606 16.8896 12.6955 17.8242 13.085C18.3308 13.2961 18.7901 13.5667 19.1338 13.9053C19.4799 14.2464 19.7499 14.7015 19.75 15.25C19.7499 15.7987 19.4801 16.2545 19.1338 16.5957C18.7901 16.9343 18.3307 17.205 17.8242 17.416C17.5188 17.5433 17.1821 17.651 16.8223 17.7442C17.1507 17.2288 17.333 16.6694 17.333 16.083C17.333 16.053 17.33 16.0231 17.3291 15.9932C17.6824 15.8377 17.9303 15.6758 18.0811 15.5274C18.24 15.3708 18.2499 15.2768 18.25 15.25C18.2499 15.2232 18.2397 15.1301 18.0811 14.9736C17.9188 14.8138 17.6451 14.6356 17.2471 14.4697C17.0904 14.4044 16.9192 14.345 16.7363 14.2891C16.2188 13.5465 15.3898 12.905 14.3496 12.4248Z" fill="currentColor"/>
</svg>
