<svg width="24" height="24" viewBox="0 0 24 24" fill="none" xmlns="http://www.w3.org/2000/svg">
<path d="M11.9998 1.24991C17.9368 1.24991 22.7497 6.06289 22.7498 11.9999C22.7498 12.4141 22.414 12.7499 21.9998 12.7499C21.5856 12.7498 21.2498 12.4141 21.2498 11.9999C21.2497 6.89132 17.1084 2.74991 11.9998 2.74991C6.89123 2.75 2.7498 6.89138 2.74976 11.9999C2.74976 14.66 3.87254 17.0577 5.67163 18.746C5.73994 18.5766 5.81934 18.415 5.91479 18.2636C6.23598 17.7542 6.68819 17.4116 7.25757 17.1894C7.80353 16.9764 8.46083 16.8721 9.21851 16.8163C9.98194 16.7601 10.9038 16.7499 11.9998 16.7499C12.4139 16.7499 12.7497 17.0857 12.7498 17.4999C12.7498 17.9141 12.414 18.2499 11.9998 18.2499C10.9021 18.2499 10.0308 18.2607 9.32886 18.3124C8.62131 18.3645 8.13992 18.4551 7.80249 18.5868C7.48865 18.7093 7.31107 18.8625 7.18433 19.0634C7.08563 19.2199 7.00175 19.4343 6.93433 19.7392C8.38935 20.6936 10.1285 21.2499 11.9998 21.2499C12.4139 21.2499 12.7497 21.5857 12.7498 21.9999C12.7498 22.4141 12.414 22.7499 11.9998 22.7499C9.63493 22.7499 7.44619 21.9855 5.67065 20.6903C2.99249 18.7367 1.24976 15.5716 1.24976 11.9999C1.2498 6.06295 6.0628 1.25 11.9998 1.24991ZM16.6697 12.1552C17.0383 12.0997 17.3624 12.2097 17.6667 12.3769C17.9442 12.5293 18.2594 12.7607 18.6257 13.0312C18.6741 12.9742 18.7254 12.92 18.782 12.8749C19.0994 12.622 19.5282 12.5577 19.906 12.706C20.0605 12.7667 20.204 12.8776 20.3367 12.9755C20.4693 13.0734 20.617 13.1769 20.7205 13.3066C20.9735 13.6239 21.0377 14.0527 20.8894 14.4306C20.8629 14.498 20.8262 14.5628 20.7859 14.6259C21.1526 14.8965 21.4665 15.1292 21.6941 15.3495C21.9436 15.5912 22.1444 15.8685 22.2 16.2372C22.2555 16.606 22.1455 16.9298 21.9783 17.2343C21.8181 17.526 21.5705 17.859 21.282 18.2499C20.9935 18.6407 20.7489 18.9757 20.5173 19.2148C20.2757 19.4641 19.9982 19.664 19.6296 19.7196C19.2612 19.7751 18.9368 19.666 18.6326 19.4989C18.356 19.347 18.0424 19.1159 17.6775 18.8466L16.0847 21.0048C15.9869 21.1374 15.8833 21.2851 15.7537 21.3886C15.4362 21.6417 15.0076 21.7068 14.6296 21.5585C14.475 21.4978 14.3318 21.387 14.199 21.289C14.0663 21.191 13.9187 21.0868 13.8152 20.9569C13.5623 20.6396 13.4981 20.2116 13.6462 19.8339C13.7069 19.6794 13.8169 19.5359 13.9148 19.4032L15.5076 17.245C15.1434 16.9762 14.8316 16.7445 14.6052 16.5253C14.3557 16.2836 14.1549 16.0064 14.0994 15.6376C14.0438 15.2689 14.1539 14.945 14.321 14.6405C14.4813 14.3489 14.728 14.0156 15.0164 13.6249C15.3048 13.2341 15.5504 12.8991 15.782 12.6601C16.0236 12.4108 16.3011 12.2107 16.6697 12.1552ZM14.7195 19.997C14.6585 20.0796 14.6227 20.1292 14.5974 20.1669C14.586 20.184 14.5796 20.1943 14.5769 20.1991C14.5592 20.2444 14.5671 20.2959 14.5974 20.3339C14.6016 20.3378 14.6108 20.3464 14.6267 20.3593C14.6619 20.3878 14.7103 20.4244 14.7927 20.4853C14.8757 20.5465 14.9259 20.582 14.9636 20.6073C14.98 20.6183 14.9899 20.624 14.9949 20.6269C15.0402 20.6447 15.0925 20.6377 15.1306 20.6073C15.1346 20.6032 15.1424 20.5945 15.155 20.579C15.1836 20.5438 15.2199 20.4939 15.281 20.411L16.8728 18.2538L16.3123 17.8398L14.7195 19.997ZM16.8181 13.1444C16.7525 13.1544 16.6642 13.1886 16.5007 13.3573C16.3269 13.5369 16.1261 13.8053 15.821 14.2187C15.516 14.632 15.3174 14.903 15.197 15.122C15.0839 15.3281 15.0778 15.4236 15.0876 15.4892C15.0976 15.5548 15.1318 15.644 15.3005 15.8075C15.4801 15.9814 15.7495 16.1812 16.1628 16.4862L18.2107 17.998C18.624 18.303 18.895 18.5017 19.114 18.622C19.3198 18.7349 19.4146 18.7402 19.4802 18.7304C19.5459 18.7205 19.6348 18.6875 19.7986 18.5185C19.9725 18.3389 20.173 18.0698 20.4783 17.6562C20.7835 17.2426 20.982 16.9719 21.1023 16.7528C21.2153 16.5471 21.2205 16.4522 21.2107 16.3866C21.2008 16.3211 21.1675 16.2318 20.9988 16.0683C20.8192 15.8944 20.5498 15.6937 20.1365 15.3886L18.0886 13.8769C17.6753 13.5718 17.4043 13.3742 17.1853 13.2538C16.979 13.1405 16.8837 13.1346 16.8181 13.1444ZM19.4441 13.6357L19.9666 14.0204C19.9677 13.9884 19.9587 13.9564 19.9382 13.9306C19.9341 13.9267 19.9247 13.919 19.9089 13.9062C19.8737 13.8776 19.8247 13.8413 19.7419 13.7802C19.659 13.719 19.6098 13.6824 19.572 13.6571C19.5368 13.6336 19.532 13.6332 19.5408 13.6366C19.5095 13.6244 19.4747 13.6246 19.4441 13.6357ZM11.9998 6.24991C14.0708 6.24991 15.7497 7.92888 15.7498 9.99991C15.7498 12.071 14.0708 13.7499 11.9998 13.7499C9.92877 13.7498 8.24976 12.0709 8.24976 9.99991C8.2498 7.92894 9.92879 6.25 11.9998 6.24991ZM11.9998 7.74991C10.7572 7.75 9.7498 8.75737 9.74976 9.99991C9.74976 11.2425 10.7572 12.2498 11.9998 12.2499C13.2424 12.2499 14.2498 11.2426 14.2498 9.99991C14.2497 8.75731 13.2424 7.74991 11.9998 7.74991Z" fill="currentColor"/>
</svg>
