<svg width="14" height="14" viewBox="0 0 14 14" fill="none" xmlns="http://www.w3.org/2000/svg">
<path d="M2.33325 12.8334V2.33341C2.33325 2.24286 2.35434 2.15354 2.39484 2.07254C2.43534 1.99154 2.49414 1.92108 2.56659 1.86675C3.17242 1.41237 3.90929 1.16675 4.66659 1.16675C6.41659 1.16675 7.58325 2.33341 8.94417 2.33341C9.72195 2.33341 10.3183 2.17786 10.7333 1.86675C10.8199 1.80175 10.923 1.76217 11.0309 1.75244C11.1388 1.74271 11.2472 1.76322 11.3441 1.81167C11.441 1.86011 11.5225 1.93459 11.5795 2.02674C11.6364 2.11889 11.6666 2.22508 11.6666 2.33341V8.16675C11.6666 8.25731 11.6455 8.34662 11.605 8.42762C11.5645 8.50862 11.5057 8.57908 11.4333 8.63341C10.8274 9.08779 10.0905 9.33341 9.33325 9.33341C7.58325 9.33341 6.41659 8.16675 4.66659 8.16675C3.80565 8.16677 2.97493 8.4841 2.33325 9.05808" stroke="#FF5247" stroke-width="2" stroke-linecap="round" stroke-linejoin="round"/>
</svg>
