<svg width="20" height="20" viewBox="0 0 20 20" fill="none" xmlns="http://www.w3.org/2000/svg">
<path d="M16.6667 11.6667L17.7442 10.5893C18.0696 10.2639 18.0696 9.73626 17.7442 9.41083L16.6667 8.33341" stroke="#EF4444" stroke-linecap="round" stroke-linejoin="round"/>
<path d="M17.5001 9.99992H10.8334M5.00008 16.6666C3.15913 16.6666 1.66675 15.1742 1.66675 13.3333V6.66659C1.66675 4.82564 3.15913 3.33325 5.00008 3.33325M5.00008 16.6666C6.84103 16.6666 8.33341 15.1742 8.33341 13.3333V6.66659C8.33341 4.82564 6.84103 3.33325 5.00008 3.33325M5.00008 16.6666H11.6667C13.5077 16.6666 15.0001 15.1742 15.0001 13.3333M5.00008 3.33325H11.6667C13.5077 3.33325 15.0001 4.82564 15.0001 6.66659" stroke="#EF4444" stroke-linecap="round"/>
</svg>
