<svg width="20" height="20" viewBox="0 0 20 20" fill="none" xmlns="http://www.w3.org/2000/svg">
<ellipse cx="8.19448" cy="13.4027" rx="4.86111" ry="2.43056" stroke="currentColor" stroke-width="1.5" stroke-linejoin="round"/>
<circle cx="8.1944" cy="6.11115" r="2.77778" stroke="currentColor" stroke-width="1.5" stroke-linejoin="round"/>
<path d="M11.7725 3.97791C13.2879 4.03376 14.4997 5.27607 14.5 6.80505C14.5 8.36986 13.2308 9.63904 11.666 9.63904C11.3175 9.63896 10.9851 9.57261 10.6768 9.4574C11.1539 9.10289 11.5513 8.64833 11.8408 8.12537C12.4947 8.03968 13 7.48219 13 6.80505C12.9998 6.31285 12.7321 5.88451 12.335 5.65369C12.2686 5.04603 12.0715 4.47833 11.7725 3.97791Z" fill="currentColor"/>
<path d="M11.667 10.2222C12.8917 10.2222 14.0357 10.4279 14.9014 10.7886C15.3326 10.9683 15.7306 11.2014 16.0322 11.4985C16.3364 11.7982 16.583 12.2076 16.583 12.7085C16.5829 13.2094 16.3364 13.6188 16.0322 13.9185C15.7306 14.2155 15.3326 14.4487 14.9014 14.6284C14.6026 14.7529 14.2701 14.8564 13.9131 14.9419C14.2534 14.4707 14.4443 13.951 14.4443 13.4028C14.4443 13.3324 14.4407 13.2624 14.4346 13.1929C14.6955 13.0736 14.8738 12.9542 14.9795 12.8501C15.0598 12.771 15.079 12.7235 15.083 12.7085C15.0792 12.6939 15.0605 12.6467 14.9795 12.5669C14.8594 12.4486 14.6469 12.3078 14.3242 12.1733C14.2391 12.1379 14.1488 12.104 14.0537 12.0718C13.5909 11.3114 12.7433 10.6662 11.6553 10.2231C11.6592 10.2231 11.6631 10.2222 11.667 10.2222Z" fill="currentColor"/>
</svg>
