<svg width="20" height="20" viewBox="0 0 20 20" fill="none" xmlns="http://www.w3.org/2000/svg">
<g clip-path="url(#clip0_948_2448)">
<path d="M12.8274 3.378L12.3257 3.93547V3.93547L12.8274 3.378ZM16.1264 6.34708L15.6247 6.90455V6.90455L16.1264 6.34708ZM18.045 8.46171L17.3598 8.76683L17.3598 8.76684L18.045 8.46171ZM2.64294 17.357L3.17327 16.8267H3.17327L2.64294 17.357ZM17.357 17.357L16.8267 16.8267L16.8267 16.8267L17.357 17.357ZM11.6666 18.3333V17.5833H8.33329V18.3333V19.0833H11.6666V18.3333ZM1.66663 11.6666H2.41663V8.33329H1.66663H0.916626V11.6666H1.66663ZM18.3333 11.3024H17.5833V11.6666H18.3333H19.0833V11.3024H18.3333ZM12.8274 3.378L12.3257 3.93547L15.6247 6.90455L16.1264 6.34708L16.6281 5.78961L13.3291 2.82053L12.8274 3.378ZM18.3333 11.3024H19.0833C19.0833 9.90645 19.0984 8.98365 18.7301 8.15658L18.045 8.46171L17.3598 8.76684C17.5682 9.23458 17.5833 9.77396 17.5833 11.3024H18.3333ZM16.1264 6.34708L15.6247 6.90455C16.7607 7.92701 17.1515 8.29908 17.3598 8.76683L18.045 8.46171L18.7301 8.15658C18.3617 7.3295 17.6657 6.72343 16.6281 5.78961L16.1264 6.34708ZM8.35812 1.66663V2.41663C9.68575 2.41663 10.1556 2.4282 10.5723 2.58811L10.841 1.88789L11.1097 1.18768C10.3732 0.905047 9.57216 0.916626 8.35812 0.916626V1.66663ZM12.8274 3.378L13.3291 2.82053C12.4311 2.01231 11.8461 1.47026 11.1097 1.18768L10.841 1.88789L10.5723 2.58811C10.9891 2.74805 11.3439 3.0519 12.3257 3.93547L12.8274 3.378ZM8.33329 18.3333V17.5833C6.74074 17.5833 5.62178 17.5817 4.77566 17.4679C3.95111 17.3571 3.49885 17.1522 3.17327 16.8267L2.64294 17.357L2.11261 17.8873C2.76334 18.538 3.5849 18.8213 4.57578 18.9546C5.54509 19.0849 6.78315 19.0833 8.33329 19.0833V18.3333ZM1.66663 11.6666H0.916626C0.916626 13.2168 0.915033 14.4548 1.04535 15.4241C1.17857 16.415 1.46187 17.2366 2.11261 17.8873L2.64294 17.357L3.17327 16.8267C2.84769 16.5011 2.64283 16.0488 2.53198 15.2243C2.41822 14.3781 2.41663 13.2592 2.41663 11.6666H1.66663ZM11.6666 18.3333V19.0833C13.2168 19.0833 14.4548 19.0849 15.4241 18.9546C16.415 18.8213 17.2366 18.538 17.8873 17.8873L17.357 17.357L16.8267 16.8267C16.5011 17.1522 16.0488 17.3571 15.2243 17.4679C14.3781 17.5817 13.2592 17.5833 11.6666 17.5833V18.3333ZM18.3333 11.6666H17.5833C17.5833 13.2592 17.5817 14.3781 17.4679 15.2243C17.3571 16.0488 17.1522 16.5011 16.8267 16.8267L17.357 17.357L17.8873 17.8873C18.538 17.2366 18.8213 16.415 18.9546 15.4241C19.0849 14.4548 19.0833 13.2168 19.0833 11.6666H18.3333ZM1.66663 8.33329H2.41663C2.41663 6.74074 2.41822 5.62178 2.53198 4.77566C2.64283 3.95111 2.84769 3.49885 3.17327 3.17327L2.64294 2.64294L2.11261 2.11261C1.46187 2.76334 1.17857 3.5849 1.04535 4.57578C0.915033 5.54509 0.916626 6.78315 0.916626 8.33329H1.66663ZM8.35812 1.66663V0.916626C6.79963 0.916626 5.55561 0.915047 4.58244 1.04529C3.58825 1.17835 2.76392 1.46129 2.11261 2.11261L2.64294 2.64294L3.17327 3.17327C3.49826 2.84827 3.9519 2.64306 4.78142 2.53204C5.63194 2.41821 6.75736 2.41663 8.35812 2.41663V1.66663Z" fill="currentColor"/>
<path d="M5 12.0834H11.6667" stroke="currentColor" stroke-width="1.5" stroke-linecap="round"/>
<path d="M5 15H9.58333" stroke="currentColor" stroke-width="1.5" stroke-linecap="round"/>
<path d="M10.8334 2.08337V4.16671C10.8334 6.13089 10.8334 7.11299 11.4436 7.72318C12.0538 8.33337 13.0359 8.33337 15 8.33337H18.3334" stroke="currentColor" stroke-width="1.5"/>
</g>
<defs>
<clipPath id="clip0_948_2448">
<rect width="20" height="20" fill="white"/>
</clipPath>
</defs>
</svg>
