<svg width="20" height="20" viewBox="0 0 20 20" fill="none" xmlns="http://www.w3.org/2000/svg">
<path d="M17.2866 13.1005L16.8602 12.8394H16.8602L17.2866 13.1005ZM16.4911 14.3995L16.9175 14.6606V14.6606L16.4911 14.3995ZM2.71341 6.89951L2.287 6.63841H2.287L2.71341 6.89951ZM3.50887 5.60048L3.93527 5.86158L3.93527 5.86158L3.50887 5.60048ZM5.6821 5.05144L5.92115 4.61229L5.92115 4.61229L5.6821 5.05144ZM3.29572 8.94855L3.05667 9.3877H3.05667L3.29572 8.94855ZM14.3179 14.9486L14.0788 15.3877L14.0789 15.3877L14.3179 14.9486ZM16.7043 11.0514L16.4652 11.4906V11.4906L16.7043 11.0514ZM3.50887 14.3995L3.08246 14.6606L3.08246 14.6606L3.50887 14.3995ZM2.71341 13.1005L3.13981 12.8394H3.13981L2.71341 13.1005ZM16.4911 5.60049L16.9175 5.33938V5.33938L16.4911 5.60049ZM17.2866 6.89952L16.8602 7.16063L16.8602 7.16063L17.2866 6.89952ZM16.7043 8.94856L16.9433 9.38771V9.38771L16.7043 8.94856ZM14.3179 5.05145L14.557 5.4906V5.4906L14.3179 5.05145ZM3.29572 11.0514L3.53478 11.4906H3.53478L3.29572 11.0514ZM5.6821 14.9486L5.44304 14.5094L5.44304 14.5094L5.6821 14.9486ZM14.2333 5.09748L13.9943 4.65833V4.65833L14.2333 5.09748ZM5.76667 5.09747L5.52761 5.53662L5.52761 5.53662L5.76667 5.09747ZM14.2333 14.9025L14.4724 14.4634L14.4724 14.4634L14.2333 14.9025ZM5.76667 14.9025L6.00572 15.3417L6.00572 15.3417L5.76667 14.9025ZM9.20454 2.5V3H10.7955V2.5V2H9.20454V2.5ZM10.7955 17.5V17H9.20454V17.5V18H10.7955V17.5ZM9.20454 17.5V17C8.57392 17 8.11363 16.525 8.11363 16H7.61363H7.11363C7.11363 17.1319 8.07789 18 9.20454 18V17.5ZM12.3864 16H11.8864C11.8864 16.525 11.4261 17 10.7955 17V17.5V18C11.9221 18 12.8864 17.1319 12.8864 16H12.3864ZM10.7955 2.5V3C11.4261 3 11.8864 3.47503 11.8864 4H12.3864H12.8864C12.8864 2.86812 11.9221 2 10.7955 2V2.5ZM9.20454 2.5V2C8.07789 2 7.11363 2.86812 7.11363 4H7.61363H8.11363C8.11363 3.47503 8.57392 3 9.20454 3V2.5ZM17.2866 13.1005L16.8602 12.8394L16.0647 14.1384L16.4911 14.3995L16.9175 14.6606L17.713 13.3616L17.2866 13.1005ZM2.71341 6.89951L3.13982 7.16062L3.93527 5.86158L3.50887 5.60048L3.08246 5.33937L2.287 6.63841L2.71341 6.89951ZM3.50887 5.60048L3.93527 5.86158C4.2289 5.38208 4.9046 5.19748 5.44304 5.49059L5.6821 5.05144L5.92115 4.61229C4.93775 4.07696 3.66747 4.384 3.08246 5.33937L3.50887 5.60048ZM3.29572 8.94855L3.53478 8.5094C3.01193 8.22479 2.85768 7.62136 3.13982 7.16062L2.71341 6.89951L2.287 6.63841C1.6905 7.61254 2.05767 8.84389 3.05667 9.3877L3.29572 8.94855ZM16.4911 14.3995L16.0647 14.1384C15.7711 14.6179 15.0954 14.8025 14.557 14.5094L14.3179 14.9486L14.0789 15.3877C15.0623 15.923 16.3325 15.616 16.9175 14.6606L16.4911 14.3995ZM17.2866 13.1005L17.713 13.3616C18.3095 12.3874 17.9423 11.1561 16.9433 10.6123L16.7043 11.0514L16.4652 11.4906C16.9881 11.7752 17.1423 12.3786 16.8602 12.8394L17.2866 13.1005ZM3.50887 14.3995L3.93527 14.1384L3.13981 12.8394L2.71341 13.1005L2.287 13.3616L3.08246 14.6606L3.50887 14.3995ZM16.4911 5.60049L16.0647 5.86159L16.8602 7.16063L17.2866 6.89952L17.713 6.63842L16.9175 5.33938L16.4911 5.60049ZM17.2866 6.89952L16.8602 7.16063C17.1423 7.62137 16.9881 8.2248 16.4652 8.50941L16.7043 8.94856L16.9433 9.38771C17.9423 8.8439 18.3095 7.61255 17.713 6.63842L17.2866 6.89952ZM14.3179 5.05145L14.557 5.4906C15.0954 5.19749 15.7711 5.38209 16.0647 5.86159L16.4911 5.60049L16.9175 5.33938C16.3325 4.38401 15.0623 4.07698 14.0788 4.6123L14.3179 5.05145ZM2.71341 13.1005L3.13981 12.8394C2.85768 12.3786 3.01193 11.7752 3.53478 11.4906L3.29572 11.0514L3.05667 10.6123C2.05767 11.1561 1.6905 12.3875 2.287 13.3616L2.71341 13.1005ZM3.50887 14.3995L3.08246 14.6606C3.66747 15.616 4.93775 15.923 5.92115 15.3877L5.6821 14.9486L5.44304 14.5094C4.9046 14.8025 4.2289 14.6179 3.93527 14.1384L3.50887 14.3995ZM14.2333 5.09748L14.4724 5.53663L14.557 5.4906L14.3179 5.05145L14.0788 4.6123L13.9943 4.65833L14.2333 5.09748ZM5.6821 5.05144L5.44304 5.49059L5.52761 5.53662L5.76667 5.09747L6.00572 4.65832L5.92115 4.61229L5.6821 5.05144ZM14.3179 14.9486L14.557 14.5094L14.4724 14.4634L14.2333 14.9025L13.9943 15.3417L14.0788 15.3877L14.3179 14.9486ZM5.76667 14.9025L5.52761 14.4634L5.44304 14.5094L5.6821 14.9486L5.92115 15.3877L6.00572 15.3417L5.76667 14.9025ZM3.29572 8.94855L3.05667 9.3877C3.54178 9.65177 3.54178 10.3482 3.05667 10.6123L3.29572 11.0514L3.53478 11.4906C4.71574 10.8477 4.71574 9.15227 3.53478 8.5094L3.29572 8.94855ZM5.76667 14.9025L6.00572 15.3417C6.50518 15.0698 7.11363 15.4313 7.11363 16H7.61363H8.11363C8.11363 14.6726 6.69343 13.8288 5.52761 14.4634L5.76667 14.9025ZM12.3864 16H12.8864C12.8864 15.4313 13.4948 15.0698 13.9943 15.3417L14.2333 14.9025L14.4724 14.4634C13.3066 13.8287 11.8864 14.6726 11.8864 16H12.3864ZM16.7043 11.0514L16.9433 10.6123C16.4582 10.3482 16.4582 9.65178 16.9433 9.38771L16.7043 8.94856L16.4652 8.50941C15.2843 9.15227 15.2843 10.8477 16.4652 11.4906L16.7043 11.0514ZM5.76667 5.09747L5.52761 5.53662C6.69343 6.17124 8.11363 5.32735 8.11363 4H7.61363H7.11363C7.11363 4.56867 6.50518 4.93021 6.00572 4.65832L5.76667 5.09747ZM14.2333 5.09748L13.9943 4.65833C13.4948 4.93022 12.8864 4.56867 12.8864 4H12.3864H11.8864C11.8864 5.32736 13.3066 6.17125 14.4724 5.53663L14.2333 5.09748ZM12.5 10H12C12 11.1046 11.1046 12 10 12V12.5V13C11.6569 13 13 11.6569 13 10H12.5ZM10 12.5V12C8.89544 12 8.00001 11.1046 8.00001 10H7.50001H7.00001C7.00001 11.6569 8.34315 13 10 13V12.5ZM7.50001 10H8.00001C8.00001 8.89543 8.89544 8 10 8V7.5V7C8.34315 7 7.00001 8.34315 7.00001 10H7.50001ZM10 7.5V8C11.1046 8 12 8.89543 12 10H12.5H13C13 8.34315 11.6569 7 10 7V7.5Z" fill="#64748B"/>
</svg>
